<svg xmlns="http://www.w3.org/2000/svg" width="1200" height="630" viewBox="0 0 1200 630">
  <rect width="1200" height="630" fill="#E8DDD0"/>
  <circle cx="600" cy="315" r="180" fill="none" stroke="#8B7355" stroke-width="4"/>
  <circle cx="600" cy="315" r="175" fill="#D4C5A9" stroke="#A0784C" stroke-width="2"/>
  <circle cx="600" cy="315" r="130" fill="#E8DDD0" stroke="#A0784C" stroke-width="1.5"/>
  <circle cx="600" cy="315" r="100" fill="none" stroke="#A0784C" stroke-width="1"/>
  <line x1="600" y1="185" x2="600" y2="445" stroke="#8B7355" stroke-width="1" opacity="0.5"/>
  <line x1="470" y1="315" x2="730" y2="315" stroke="#8B7355" stroke-width="1" opacity="0.5"/>
  <polygon points="600,195 590,315 610,315" fill="#FF8C00"/>
  <polygon points="600,435 590,315 610,315" fill="#8B7355"/>
  <circle cx="600" cy="315" r="6" fill="#FF8C00"/>
  <circle cx="600" cy="315" r="3" fill="#FFF8DC"/>
  <g font-family="serif" font-size="14" fill="#8B7355" text-anchor="middle">
    <text x="600" y="210" fill="#FF8C00">N</text>
    <text x="600" y="430">S</text>
    <text x="490" y="320">W</text>
    <text x="710" y="320">E</text>
  </g>
  <g font-family="serif" font-size="10" fill="#A0784C" opacity="0.6">
    <text x="600" y="175" text-anchor="middle">ॐ</text>
  </g>
  <text x="340" y="220" font-family="serif" font-size="28" font-weight="bold" fill="#7B9CB8" text-anchor="middle">VATA</text>
  <text x="340" y="245" font-family="serif" font-size="13" fill="#7B9CB8" text-anchor="middle">Air · Space</text>
  <text x="860" y="220" font-family="serif" font-size="28" font-weight="bold" fill="#D4733B" text-anchor="middle">PITTA</text>
  <text x="860" y="245" font-family="serif" font-size="13" fill="#D4733B" text-anchor="middle">Fire · Water</text>
  <text x="600" y="520" font-family="serif" font-size="28" font-weight="bold" fill="#6B8E6B" text-anchor="middle">KAPHA</text>
  <text x="600" y="545" font-family="serif" font-size="13" fill="#6B8E6B" text-anchor="middle">Earth · Water</text>
  <line x1="380" y1="245" x2="460" y2="280" stroke="#7B9CB8" stroke-width="1" opacity="0.4"/>
  <line x1="820" y1="245" x2="740" y2="280" stroke="#D4733B" stroke-width="1" opacity="0.4"/>
  <line x1="600" y1="495" x2="600" y2="460" stroke="#6B8E6B" stroke-width="1" opacity="0.4"/>
</svg>
